<?xml version="1.0" encoding="UTF-8" standalone="no"?><!DOCTYPE svg PUBLIC "-//W3C//DTD SVG 1.1//EN" "http://www.w3.org/Graphics/SVG/1.1/DTD/svg11.dtd"><svg width="100%" height="100%" viewBox="0 0 4500 785" version="1.1" xmlns="http://www.w3.org/2000/svg" xmlns:xlink="http://www.w3.org/1999/xlink" xml:space="preserve" xmlns:serif="http://www.serif.com/" style="fill-rule:evenodd;clip-rule:evenodd;stroke-linejoin:round;stroke-miterlimit:2;"><rect id="MD" x="0" y="0" width="4500" height="784.35" style="fill:none;"/><g><g><path d="M355.203,595.519l1.847,-61.003l0.466,-14.789l0.921,-23.57l0.466,-25.417l-0,-66.55c-1.276,-1.27 -7.395,-7.394 -21.262,-7.394l-16.637,4.621c-2.936,1.261 -19.409,8.32 -26.804,29.577l0,266.199l-23.104,12.941c-6.599,2.597 -30.504,12.015 -87.812,12.015c-81.766,0 -123.857,-49.006 -123.857,-121.083l0.465,-13.402l0.926,-20.336l0.461,-21.718l0,-55.46l2.774,-231.074l5.542,-2.774c44.371,-30.499 104.275,-30.499 113.689,-30.499c24.957,0 42.282,6.543 45.754,7.855c20.796,7.856 26.543,15.041 28.19,17.102l14.789,24.952l9.242,17.562l36.046,-27.73l22.188,-13.863c43.44,-24.956 82.208,-24.956 89.654,-24.956c13.155,-0 110.916,-0 151.587,63.776l7.39,-5.542l21.262,-15.255l14.784,-11.55l40.672,-19.414c29.577,-12.015 55.176,-12.015 60.081,-12.015c14.509,0.405 133.094,3.699 161.751,82.264c2.596,6.934 13.862,36.972 13.862,91.506l0,32.347l-4.621,168.224l-1.386,29.116l-1.387,28.652l-0.926,20.796l-24.031,22.184c-6.38,3.964 -34.198,21.257 -91.506,21.257c-7.399,-0 -57.303,-0 -87.341,-30.504c-4.533,-4.597 -30.043,-30.499 -30.043,-74.865l2.773,-127.552l1.848,-61.003c-0,-32.351 -26.944,-32.351 -30.499,-32.351l-9.247,2.773l-19.405,10.168l0,23.105l-4.625,168.224l-1.383,29.116l-1.391,28.652l-0.921,20.796c-1.88,3.933 -10.168,21.258 -43.906,32.352c-5.51,1.81 -33.733,11.089 -71.631,11.089c-7.53,-0 -57.308,-0 -88.733,-31.425c-36.972,-30.499 -36.972,-87.886 -36.972,-96.127Z" style="fill:#6b5b51;"/><path d="M1148.98,389.546c2.033,1.224 3.936,2.485 5.998,3.727c-0.088,0.065 -0.182,0.135 -0.275,0.205c3.867,3.174 24.036,19.721 24.036,58.22l-0,230.054c-40.672,41.319 -114.281,41.319 -124.784,41.319c-53.608,-0 -73.925,-16.515 -79.025,-20.657c-4.277,-3.481 -25.418,-20.662 -27.265,-63.855l-3.695,-160.569l1.847,-38.503l11.55,-28.168l17.102,-19.721c0.675,0.237 1.815,0.637 3.378,1.14c22.733,16.888 51.817,27.032 83.507,27.032c33.636,0 64.344,-11.429 87.626,-30.224Zm-87.626,-263.569c72.655,-0 131.643,52.491 131.643,117.147c-0,64.651 -58.988,117.142 -131.643,117.142c-72.659,-0 -131.647,-52.491 -131.647,-117.142c0,-64.656 58.988,-117.147 131.647,-117.147Z" style="fill:#6b5b51;"/><path d="M1485.6,360.75c-1.541,98.896 -3.081,197.797 -4.626,296.697l-2.769,6.469c-3.862,8.232 -27.73,59.155 -97.053,59.155c-76.462,-0 -152.504,-41.919 -152.504,-162.677l-0,-12.937l-1.852,-86.885l-1.848,-128.478l-2.773,-226.448l35.124,-15.715c44.367,-16.637 84.066,-16.637 91.502,-16.637c8.306,0 61.007,0 99.361,30.039c5.798,4.542 38.364,30.043 38.364,83.651l-0,81.334l-0.926,92.432Z" style="fill:#6b5b51;"/><path d="M1734.96,389.546c2.034,1.224 3.942,2.485 6.003,3.727c-0.093,0.065 -0.181,0.135 -0.274,0.205c3.867,3.174 24.03,19.721 24.03,58.22l0,230.054c-40.667,41.319 -114.28,41.319 -124.778,41.319c-53.609,-0 -73.93,-16.515 -79.026,-20.657c-4.281,-3.481 -25.422,-20.662 -27.269,-63.855l-3.695,-160.569l1.847,-38.503l11.555,-28.168l17.097,-19.721c0.674,0.237 1.814,0.637 3.383,1.14c22.727,16.888 51.816,27.032 83.502,27.032c33.64,0 64.344,-11.429 87.625,-30.224Zm-87.625,-263.569c72.655,-0 131.647,52.491 131.647,117.147c0,64.651 -58.992,117.142 -131.647,117.142c-72.655,-0 -131.643,-52.491 -131.643,-117.142c0,-64.656 58.988,-117.147 131.643,-117.147Z" style="fill:#6b5b51;"/><path d="M2265.68,711.982l-25.878,2.773c-8.93,0 -59.155,0 -100.748,-48.066c-56.382,56.382 -112.968,56.382 -123.858,56.382c-11.019,-0 -65.623,-0 -129.399,-47.14c-6.087,-4.323 -35.125,-24.957 -56.382,-74.405c-3.667,-8.534 -21.262,-49.448 -21.262,-114.15c0,-53.608 11.457,-88.737 13.868,-96.127c13.862,-42.514 31.597,-63.269 35.585,-67.936c21.722,-25.413 45.404,-39.006 49.913,-41.589c28.187,-16.18 49.513,-21.126 54.069,-22.187l51.761,-6.008c4.681,-0 29.578,-0 56.382,15.715l27.73,18.488l10.168,7.394l-5.547,-137.72l-3.7,-63.776l35.125,-15.715c44.366,-16.636 84.065,-16.636 91.506,-16.636c116.463,0 116.463,100.669 116.463,113.685c0,62.855 -5.016,348.649 -5.552,378.962l32.356,11.089l7.39,1.852l-0,13.402l-6.929,32.351l-16.641,39.746c-1.875,3.508 -10.624,19.87 -33.273,36.967c-3.69,2.787 -22.648,17.102 -53.147,22.649Zm-122.005,-225.532c-0,-37.893 -14.049,-56.121 -17.102,-60.077c-17.097,-22.183 -39.108,-22.183 -42.975,-22.183c-3.69,0 -24.035,0 -40.671,21.723c-2.881,3.76 -16.641,21.718 -16.641,56.842c-0,34.199 13.881,54.246 16.641,58.229c16.636,24.031 38.61,24.031 42.519,24.031c3.718,-0 24.956,-0 41.588,-20.796c3.006,-3.751 16.641,-20.797 16.641,-57.769Z" style="fill:#cf8949;"/><path d="M2404.85,447.272c2.336,-68.024 25.683,-123.057 70.049,-165.087c46.833,-43.747 106.295,-65.628 178.392,-65.628c14.789,-0 31.118,2.159 48.987,6.473c17.87,4.314 37.279,12.476 58.229,24.491c20.95,12.016 39.899,26.963 56.843,44.827c16.948,17.874 31.118,42.212 42.519,73.023c1.917,5.179 3.676,10.48 5.267,15.887c-3.727,4.411 -7.631,8.809 -11.708,13.132c-24.733,26.255 -55.777,50.193 -92.465,57.029c-14.523,2.703 -30.275,3.541 -46.837,3.127c-2.485,-18.437 -9.209,-33.375 -20.168,-44.809c-14.17,-14.789 -29.885,-22.183 -47.135,-22.183c-22.188,0 -40.518,7.394 -55,22.183c-7.59,7.748 -13.188,16.771 -16.799,27.065c-14.296,-2.145 -28.4,-4.044 -42.096,-5.379c-49.806,-4.863 -94.74,-2.02 -128.078,15.849Zm471.329,-1.945c0.526,7.976 0.791,16.138 0.791,24.487c0,104.755 -38.205,178.699 -114.611,221.832c-36.357,20.95 -72.715,31.425 -109.068,31.425c-42.519,-0 -81.339,-7.395 -116.463,-22.183c-25.264,-9.856 -46.828,-24.031 -64.702,-42.515c-19.717,-18.488 -35.893,-45.292 -48.522,-80.417c-7.455,-20.717 -12.709,-43.044 -15.762,-66.982c3.621,-3.597 7.553,-7.264 11.811,-10.978c24.808,-21.615 64.316,-20.917 108.203,-16.631c14.142,1.377 28.689,3.262 43.44,5.361c5.585,45.315 30.76,67.973 75.527,67.973c17.25,0 32.965,-7.394 47.135,-22.183c7.469,-7.795 12.974,-17.302 16.506,-28.521c21.378,0.903 41.653,0.158 60.062,-3.272c40.379,-7.524 76.136,-29.964 105.653,-57.396Z" style="fill:#cf8949;"/><path d="M2906.13,600.14l-0,-22.184l4.621,-140.489l3.694,-164.524l0,-12.941l28.652,-16.636c6.464,-2.927 38.824,-17.563 86.885,-17.563c24.957,0 42.282,6.543 45.753,7.855c20.797,7.856 26.544,15.041 28.191,17.102l14.789,24.952l9.242,17.562l36.046,-27.73l22.183,-13.863c43.445,-24.956 82.213,-24.956 89.659,-24.956c14.509,0.405 133.099,3.699 161.751,82.264c2.601,6.934 13.867,36.972 13.867,91.506l0,32.347l-4.626,168.224l-1.382,29.116l-1.391,28.652l-0.921,20.796l-24.036,22.184c-6.38,3.964 -34.194,21.257 -91.501,21.257c-7.404,-0 -57.308,-0 -87.346,-30.504c-4.528,-4.597 -30.039,-30.499 -30.039,-74.865l2.769,-127.552l1.852,-61.003c0,-32.351 -26.948,-32.351 -30.503,-32.351l-16.637,4.621c-2.936,1.261 -19.409,8.32 -26.804,29.577l0,265.273l-23.104,12.941c-6.599,2.597 -30.504,12.015 -87.812,12.015c-81.766,0 -123.852,-49.006 -123.852,-121.083Z" style="fill:#cf8949;"/><path d="M3971.45,612.155c-0,42.519 -9.814,66.68 -12.016,72.096c-15.714,38.82 -63.827,38.82 -70.244,38.82c-38.819,-0 -60.858,-23.612 -64.702,-27.726l-20.336,-26.808c-7.506,8.357 -48.987,54.534 -129.4,54.534c-73.943,-0 -124.746,-34.39 -134.02,-40.667c-8.521,-5.766 -60.081,-40.672 -60.081,-113.69c-0,-73.943 45.497,-105.322 53.608,-110.915c8.59,-6.134 51.761,-36.972 126.631,-36.972c9.656,-0 57.303,-0 118.305,24.03l0,-6.468c0,-51.761 -77.932,-51.761 -85.954,-51.761l-47.605,3.234l-50.374,3.239c-44.362,0 -61.943,-15.333 -66.085,-18.949c-21.722,-18.949 -21.722,-61.38 -21.722,-67.01c-0,-5.901 -0,-54.535 10.168,-73.018c80.412,-27.73 151.178,-27.73 164.524,-27.73c116.463,-0 179.741,51.7 192.254,61.924c12.067,9.893 76.718,62.854 76.718,179.313l-4.626,67.475l-4.621,68.397c0,15.715 26.562,27.335 29.578,28.652Zm-195.949,-26.804l-0,-34.199l-33.278,-15.71l-48.982,-8.32c-22.183,-0 -32.886,9.172 -35.125,11.089c-1.912,1.638 -12.941,11.094 -12.941,28.656c-0,2.662 -0,17.562 15.249,29.578c2.751,2.164 15.25,12.015 42.059,12.015c47.135,-0 68.448,-19.028 73.018,-23.109Z" style="fill:#cf8949;"/><path d="M4206.73,372.765c0,12.942 43.003,23.901 47.136,24.957c11.768,2.252 86.885,16.636 136.798,61.003c49.909,44.366 49.909,90.035 49.909,98.9c-0,73.944 -47.712,111.4 -55.916,117.845c-55.921,43.906 -140.164,47.112 -152.975,47.601l-6.468,-0c-12.42,-0.242 -94.275,-1.848 -152.044,-31.425c-6.733,-3.448 -57.768,-29.578 -57.768,-74.87c0,-36.968 16.157,-56.21 19.405,-60.077l19.414,-16.636c88.733,36.972 133.984,36.972 146.036,36.972c3.244,-0 36.051,-0 36.972,-16.641c0,-15.71 -58.159,-36.781 -63.776,-38.819l-63.776,-21.258c-36.046,-11.093 -56.824,-29.172 -61.003,-32.811c-24.956,-21.723 -31.853,-43.18 -33.272,-47.601c-14.789,-39.745 -14.789,-57.689 -14.789,-62.855c0.922,-39.745 18.475,-67.438 21.718,-72.557c20.797,-32.812 45.455,-46.679 50.374,-49.448c4.723,-2.722 24.031,-13.863 63.776,-24.03c48.066,-12.016 85.825,-12.016 93.354,-12.016c10.591,0 64.702,0 130.326,23.105c34.198,12.02 50.76,32.039 54.069,36.05c3.052,3.681 19.875,24.031 19.875,56.382c-0,7.064 -0,49.909 -45.288,75.792c-85.964,-34.204 -129.781,-34.204 -141.42,-34.204c-3.513,0 -33.272,0 -40.667,16.641Z" style="fill:#cf8949;"/></g></g></svg>